<svg xmlns="http://www.w3.org/2000/svg" width="68.046" height="82.616" viewBox="0 0 68.046 82.616"><g id="award_1_" data-name="award (1)" transform="translate(-97.092 -76)"><g id="Group_1813" data-name="Group 1813" transform="translate(122.6 127.366)"><path id="Path_6744" data-name="Path 6744" d="M216.231,313.039H233.26v29.538H216.231Z" transform="translate(-216.231 -313.039)" fill="#ffa426"></path></g><g id="Group_1814" data-name="Group 1814" transform="translate(131.112 127.366)"><path id="Path_6745" data-name="Path 6745" d="M255.986,313.039H264.5v29.538h-8.518Z" transform="translate(-255.986 -313.039)" fill="#fe8205"></path></g><g id="Group_1815" data-name="Group 1815" transform="translate(97.092 82.796)"><path id="Path_6746" data-name="Path 6746" d="M148.454,148.777H113.775a16.7,16.7,0,0,1-16.683-16.683V107.742h68.046v24.352A16.7,16.7,0,0,1,148.454,148.777ZM106.3,116.948v15.146a7.485,7.485,0,0,0,7.477,7.477h34.679a7.485,7.485,0,0,0,7.477-7.477V116.948Z" transform="translate(-97.092 -107.742)" fill="#ffa426"></path></g><g id="Group_1816" data-name="Group 1816" transform="translate(131.112 82.796)"><path id="Path_6747" data-name="Path 6747" d="M255.986,107.742v9.206h24.819v15.146a7.485,7.485,0,0,1-7.477,7.477H255.986v9.206h17.342a16.7,16.7,0,0,0,16.683-16.683V107.742Z" transform="translate(-255.986 -107.742)" fill="#fe8205"></path></g><g id="Group_1817" data-name="Group 1817" transform="translate(109.507 76)"><path id="Path_6748" data-name="Path 6748" d="M180.512,135h-7.653a17.781,17.781,0,0,1-17.781-17.781V76h43.216v41.214A17.782,17.782,0,0,1,180.512,135Z" transform="translate(-155.078 -76)" fill="#ffce00"></path></g><g id="Group_1818" data-name="Group 1818" transform="translate(131.112 76)"><path id="Path_6749" data-name="Path 6749" d="M255.986,76v59h3.829A17.781,17.781,0,0,0,277.6,117.214V76Z" transform="translate(-255.986 -76)" fill="#fdba12"></path></g><g id="Group_1819" data-name="Group 1819" transform="translate(119.455 92.55)"><path id="Path_6750" data-name="Path 6750" d="M213.2,152.513l3.6,7.3,8.057,1.171-5.83,5.683,1.376,8.024L213.2,170.9l-7.206,3.789,1.376-8.024-5.83-5.683,8.057-1.171Z" transform="translate(-201.54 -152.513)" fill="#fff"></path></g><g id="Group_1820" data-name="Group 1820" transform="translate(131.112 92.55)"><path id="Path_6751" data-name="Path 6751" d="M267.649,160.984l-8.057-1.171-3.6-7.3,0,.006V170.9h0l7.206,3.789-1.376-8.024Z" transform="translate(-255.986 -152.513)" fill="#e9edf5"></path></g><g id="Group_1821" data-name="Group 1821" transform="translate(116.327 150.524)"><path id="Path_6752" data-name="Path 6752" d="M186.932,421.2h29.575v8.091H186.932Z" transform="translate(-186.932 -421.202)" fill="#ffce00"></path></g><g id="Group_1822" data-name="Group 1822" transform="translate(131.112 150.524)"><path id="Path_6753" data-name="Path 6753" d="M255.986,421.2h14.791v8.091H255.986Z" transform="translate(-255.986 -421.202)" fill="#fdba12"></path></g></g></svg>