<svg xmlns="http://www.w3.org/2000/svg" id="trophy_1_" data-name="trophy (1)" width="82.616" height="76.119" viewBox="0 0 82.616 76.119"><g id="Group_1794" data-name="Group 1794" transform="translate(0 0)"><path id="Path_6680" data-name="Path 6680" d="M349.4,59.865a10.305,10.305,0,0,0,5.8-1.77,11.673,11.673,0,0,0,4.979-9.2,35.508,35.508,0,0,0-.274-6.079,2.418,2.418,0,0,0-.917-1.617,2.45,2.45,0,0,0-1.792-.489,13.668,13.668,0,0,0-7.093,3.324c-.1-.8-.284-1.613-.451-2.418a10.3,10.3,0,0,0,5.142-5.352,11.519,11.519,0,0,0-1.116-10.436,39.676,39.676,0,0,0-3.621-4.874,2.42,2.42,0,0,0-3.413-.227,13.7,13.7,0,0,0-4.264,8.048,14.393,14.393,0,0,0,.884,8.3A26.776,26.776,0,0,1,333.175,70.3,4.8,4.8,0,0,0,331,74.467a2.355,2.355,0,0,0,2.383,2.383,2.422,2.422,0,0,0,2.383-2.461c.248-.155.485-.32.727-.482a10.246,10.246,0,0,0,6.823,2.633h.08c5.938,0,9.827-4.869,12.31-10.284a2.419,2.419,0,0,0-1.12-3.177A13.08,13.08,0,0,0,347,62.013q.558-1.107,1.035-2.264a11.037,11.037,0,0,0,1.367.115Z" transform="translate(-277.59 -20.132)" fill="#ff9100"></path><path id="Path_6681" data-name="Path 6681" d="M26.228,69.757A26.728,26.728,0,0,1,17.1,36.851l-.025-.012a14.412,14.412,0,0,0,.8-8.083,13.639,13.639,0,0,0-4.259-8.025,2.42,2.42,0,0,0-3.413.227,39.811,39.811,0,0,0-3.621,4.871,11.5,11.5,0,0,0-1.12,10.412,10.289,10.289,0,0,0,5.137,5.374c-.165.812-.317,1.621-.417,2.445a13.8,13.8,0,0,0-7.16-3.346,2.489,2.489,0,0,0-1.792.489,2.4,2.4,0,0,0-.917,1.617,36.528,36.528,0,0,0-.279,6.039,11.629,11.629,0,0,0,5.054,9.256,10.025,10.025,0,0,0,5.744,1.754,11.305,11.305,0,0,0,1.486-.125c.3.752.626,1.493.988,2.219a13.059,13.059,0,0,0-7.6,1.111,2.424,2.424,0,0,0-1.068,3.29A39.258,39.258,0,0,0,7.7,71.476a11.365,11.365,0,0,0,9.4,5.051,10.122,10.122,0,0,0,6.646-2.591l.61.433,0,.1a2.42,2.42,0,1,0,4.841,0c0-2.6-1.65-3.77-2.978-4.711Z" transform="translate(0 -20.132)" fill="#fabe2c"></path></g><g id="Group_1795" data-name="Group 1795" transform="translate(38.887 42.234)"><path id="Path_6682" data-name="Path 6682" d="M243.42,296.393a2.419,2.419,0,0,1-2.42-2.42v-9.682a2.42,2.42,0,0,1,4.841,0v9.682A2.419,2.419,0,0,1,243.42,296.393Z" transform="translate(-241 -281.871)" fill="#fabe2c"></path></g><path id="Path_6683" data-name="Path 6683" d="M258.42,293.973v-9.682a2.419,2.419,0,0,0-2.42-2.42v14.522A2.419,2.419,0,0,0,258.42,293.973Z" transform="translate(-214.692 -239.637)" fill="#ff9100"></path><g id="Group_1796" data-name="Group 1796" transform="translate(21.945 3.55)"><path id="Path_6684" data-name="Path 6684" d="M155.387,85.659a2.406,2.406,0,0,1-.662-.092A25.892,25.892,0,0,1,136,60.787V46.933a2.423,2.423,0,0,1,3.616-2.1,17.487,17.487,0,0,0,7.275,2.1c2.539,0,5.734-2.976,6.651-4.018a2.514,2.514,0,0,1,3.64,0c.917,1.042,4.113,4.018,6.651,4.018a17.614,17.614,0,0,0,7.271-2.1,2.42,2.42,0,0,1,3.621,2.1V60.8a25.866,25.866,0,0,1-18.673,24.766A2.391,2.391,0,0,1,155.387,85.659Z" transform="translate(-136 -42.135)" fill="#fed843"></path></g><path id="Path_6685" data-name="Path 6685" d="M256.023,85.658a2.376,2.376,0,0,0,.667-.095A25.866,25.866,0,0,0,275.362,60.8V46.932a2.42,2.42,0,0,0-3.621-2.1,17.61,17.61,0,0,1-7.271,2.1c-2.538,0-5.734-2.976-6.651-4.018a2.428,2.428,0,0,0-1.82-.78V85.655C256.007,85.655,256.015,85.658,256.023,85.658Z" transform="translate(-214.691 -38.584)" fill="#fabe2c"></path><g id="Group_1797" data-name="Group 1797" transform="translate(31.626 15.742)"><path id="Path_6686" data-name="Path 6686" d="M205.7,138.64a2.435,2.435,0,0,1-1.139-.284A16.076,16.076,0,0,1,196,124.151v-1.8a2.422,2.422,0,0,1,2.231-2.413,15.932,15.932,0,0,0,6.3-1.957,2.415,2.415,0,0,1,2.3,0,15.932,15.932,0,0,0,6.3,1.957,2.422,2.422,0,0,1,2.231,2.413v1.811a16.091,16.091,0,0,1-8.519,14.191A2.429,2.429,0,0,1,205.7,138.64Z" transform="translate(-196 -117.692)" fill="#fabe2c"></path></g><path id="Path_6687" data-name="Path 6687" d="M256.019,138.64a2.429,2.429,0,0,0,1.144-.286,16.092,16.092,0,0,0,8.519-14.191v-1.811a2.422,2.422,0,0,0-2.231-2.413,15.932,15.932,0,0,1-6.3-1.957,2.418,2.418,0,0,0-1.149-.291v20.944C256.006,138.635,256.012,138.64,256.019,138.64Z" transform="translate(-214.692 -101.949)" fill="#ff9100"></path><g id="Trophy_26_" transform="translate(24.365 51.915)"><g id="Group_1798" data-name="Group 1798"><path id="Path_6688" data-name="Path 6688" d="M182.465,341.871H153.42a2.4,2.4,0,0,0-2.42,2.42v19.363h33.885V344.291A2.4,2.4,0,0,0,182.465,341.871Z" transform="translate(-151 -341.871)" fill="#646d73"></path></g></g><path id="Path_6689" data-name="Path 6689" d="M270.522,341.871H256v21.783h16.943V344.291A2.4,2.4,0,0,0,270.522,341.871Z" transform="translate(-214.692 -289.956)" fill="#474f54"></path><g id="Group_1799" data-name="Group 1799" transform="translate(34.047 61.597)"><path id="Path_6690" data-name="Path 6690" d="M223.1,406.712H213.42a2.42,2.42,0,0,1,0-4.841H223.1a2.42,2.42,0,0,1,0,4.841Z" transform="translate(-211 -401.871)" fill="#fed843"></path></g><path id="Path_6691" data-name="Path 6691" d="M260.841,401.871H256v4.841h4.841a2.42,2.42,0,0,0,0-4.841Z" transform="translate(-214.692 -340.274)" fill="#fabe2c"></path><g id="Group_1800" data-name="Group 1800" transform="translate(19.524 71.278)"><path id="Path_6692" data-name="Path 6692" d="M162.146,466.712H123.42a2.42,2.42,0,1,1,0-4.841h38.726a2.42,2.42,0,1,1,0,4.841Z" transform="translate(-121 -461.871)" fill="#474f54"></path></g><path id="Path_6693" data-name="Path 6693" d="M275.363,461.871H256v4.841h19.363a2.42,2.42,0,1,0,0-4.841Z" transform="translate(-214.692 -390.593)" fill="#32393f"></path></svg>