<svg xmlns="http://www.w3.org/2000/svg" id="award" width="82.616" height="82.616" viewBox="0 0 82.616 82.616"><path id="Path_6672" data-name="Path 6672" d="M431.147,65.1l-1.462-4.615a12.056,12.056,0,0,0,8.441-11.539v-12.1h-7.261V34.42a2.42,2.42,0,0,1,2.42-2.42h9.682V48.943A16.949,16.949,0,0,1,431.147,65.1Z" transform="translate(-360.352 -26.837)" fill="#fdbf00"></path><path id="Path_6673" data-name="Path 6673" d="M11.82,65.1A16.949,16.949,0,0,1,0,48.943V32H9.682a2.42,2.42,0,0,1,2.42,2.42v2.42H4.841v12.1a12.057,12.057,0,0,0,8.441,11.539Z" transform="translate(0 -26.837)" fill="#ffda2d"></path><path id="Path_6674" data-name="Path 6674" d="M363.42,32,361,58.624v29.86l7.243-7.092,7.279,7.279V32Z" transform="translate(-302.75 -26.837)" fill="#ff641a"></path><path id="Path_6675" data-name="Path 6675" d="M73.1,32H61V88.485l7.243-7.092,7.279,7.279V58.624Z" transform="translate(-51.157 -26.837)" fill="#ff9100"></path><path id="Path_6676" data-name="Path 6676" d="M164.567,31.788V0H121V31.788a21.774,21.774,0,0,0,14.522,20.544V68.093h-6.69A7.842,7.842,0,0,0,121,75.926v6.69h43.567v-6.69a7.842,7.842,0,0,0-7.832-7.832h-6.69V52.332A21.775,21.775,0,0,0,164.567,31.788Z" transform="translate(-101.476)" fill="#ffda2d"></path><path id="Path_6677" data-name="Path 6677" d="M263.261,52.332V68.093h6.69a7.842,7.842,0,0,1,7.832,7.832v6.69H256V0h21.783V31.788A21.775,21.775,0,0,1,263.261,52.332Z" transform="translate(-214.692)" fill="#fdbf00"></path><path id="Path_6678" data-name="Path 6678" d="M193.155,63.558l-10.39-1.473-4.583-9.065L173.6,62.085l-10.39,1.473,7.523,7.159-1.76,10.024,9.21-4.728,9.21,4.728-1.76-10.024Z" transform="translate(-136.875 -44.465)" fill="#fdbf00"></path><path id="Path_6679" data-name="Path 6679" d="M263.45,70.718l1.76,10.024L256,76.014V53.02l4.583,9.065,10.39,1.473Z" transform="translate(-214.692 -44.465)" fill="#ff9100"></path></svg>