<svg xmlns="http://www.w3.org/2000/svg" id="trophy" width="76.877" height="82.615" viewBox="0 0 76.877 82.615"><g id="Group_1806" data-name="Group 1806" transform="translate(0 9.989)"><path id="Path_6728" data-name="Path 6728" d="M42.391,101.845h-1.4a1.247,1.247,0,1,1,0-2.494h1.4a1.008,1.008,0,0,0,.451-1.91l-9.9-4.956A27.438,27.438,0,0,1,17.782,67.948V65.995a4.091,4.091,0,0,1,4.087-4.087H36.646a1.247,1.247,0,1,1,0,2.494H21.869a1.6,1.6,0,0,0-1.593,1.593v1.953a24.945,24.945,0,0,0,13.78,22.307l9.9,4.956a3.5,3.5,0,0,1-1.567,6.634Z" transform="translate(-17.782 -61.908)" fill="#f7a738"></path><path id="Path_6729" data-name="Path 6729" d="M324.9,101.845h-1.4a3.5,3.5,0,0,1-1.567-6.634l9.9-4.956a24.945,24.945,0,0,0,13.78-22.307V65.995a1.6,1.6,0,0,0-1.593-1.593H329.246a1.247,1.247,0,1,1,0-2.494h14.777a4.091,4.091,0,0,1,4.087,4.087v1.953a27.438,27.438,0,0,1-15.158,24.537l-9.9,4.956a1.008,1.008,0,0,0,.451,1.91h1.4a1.247,1.247,0,1,1,0,2.494Z" transform="translate(-271.233 -61.908)" fill="#f7a738"></path></g><path id="Path_6730" data-name="Path 6730" d="M201.763,311.913v-5.425h-8.519v5.425a6.35,6.35,0,0,1-3.5,5.674l-.856.431a4.8,4.8,0,0,0-2.641,4.284v6.351h22.51V322.3a4.8,4.8,0,0,0-2.641-4.284l-.856-.431A6.35,6.35,0,0,1,201.763,311.913Z" transform="translate(-159.065 -257.034)" fill="#fec93e"></path><path id="Path_6731" data-name="Path 6731" d="M264.613,318.017l-.856-.431a6.35,6.35,0,0,1-3.5-5.674v-5.425H256v22.165h11.255V322.3A4.8,4.8,0,0,0,264.613,318.017Z" transform="translate(-217.561 -257.034)" fill="#efb635"></path><path id="Path_6732" data-name="Path 6732" d="M151.313,71.439h0a29.148,29.148,0,0,1-18.237-24.913l-1.905-25.793h40.284L169.55,46.526A29.148,29.148,0,0,1,151.313,71.439Z" transform="translate(-112.875 -17.388)" fill="#fec93e"></path><path id="Path_6733" data-name="Path 6733" d="M268.106,20.733,266.2,46.526c-.586,7.93-4.362,18.186-10.237,24.91l.006,0h0a29.148,29.148,0,0,0,18.237-24.913l1.905-25.793Z" transform="translate(-217.53 -17.388)" fill="#efb635"></path><path id="Path_6734" data-name="Path 6734" d="M155.475,5.726H111.421a1.552,1.552,0,0,1-1.552-1.552V1.552A1.552,1.552,0,0,1,111.421,0h44.054a1.552,1.552,0,0,1,1.552,1.552V4.173A1.552,1.552,0,0,1,155.475,5.726Z" transform="translate(-95.01)" fill="#f7a738"></path><path id="Path_6735" data-name="Path 6735" d="M155.475,10.263H111.42a1.552,1.552,0,0,1-1.546-1.426c0,.042-.006.084-.006.126v2.621a1.552,1.552,0,0,0,1.552,1.552h44.054a1.552,1.552,0,0,0,1.552-1.552V8.963c0-.043,0-.085-.006-.126A1.551,1.551,0,0,1,155.475,10.263Z" transform="translate(-95.009 -7.411)" fill="#ea9632"></path><path id="Path_6736" data-name="Path 6736" d="M173.486,425.4H134.169v-7.123a4.256,4.256,0,0,1,4.256-4.256H169.23a4.256,4.256,0,0,1,4.256,4.256V425.4Z" transform="translate(-115.389 -347.211)" fill="#f7a738"></path><path id="Path_6737" data-name="Path 6737" d="M169.23,414.016h-4.455v5.029a3.163,3.163,0,0,1-3.163,3.163H134.169V425.4h39.317v-7.124A4.256,4.256,0,0,0,169.23,414.016Z" transform="translate(-115.389 -347.211)" fill="#ea9632"></path><path id="Path_6738" data-name="Path 6738" d="M156.831,484.277H110.78a.485.485,0,0,1-.485-.485v-4.363a.485.485,0,0,1,.485-.485h46.05a.485.485,0,0,1,.485.485v4.363A.485.485,0,0,1,156.831,484.277Z" transform="translate(-95.367 -401.661)" fill="#fec93e"></path><path id="Path_6739" data-name="Path 6739" d="M222.255,316.041h-10.31a2.33,2.33,0,0,1-2.33-2.329v-.751a2.33,2.33,0,0,1,2.33-2.33h10.31a2.33,2.33,0,0,1,2.33,2.33v.751A2.329,2.329,0,0,1,222.255,316.041Z" transform="translate(-178.662 -260.508)" fill="#ff8150"></path><path id="Path_6740" data-name="Path 6740" d="M222.255,320.366h-10.31a2.328,2.328,0,0,1-2.113-1.353,2.317,2.317,0,0,0-.217.977v.751a2.33,2.33,0,0,0,2.33,2.33h10.31a2.33,2.33,0,0,0,2.33-2.33v-.751a2.316,2.316,0,0,0-.217-.977A2.328,2.328,0,0,1,222.255,320.366Z" transform="translate(-178.662 -267.538)" fill="#fd6e2e"></path><path id="Path_6741" data-name="Path 6741" d="M193.3,72.673l2.887,7.97,8.472.282a.408.408,0,0,1,.237.729l-6.688,5.208,2.35,8.145a.408.408,0,0,1-.62.451l-7.02-4.752-7.02,4.752a.408.408,0,0,1-.62-.451l2.35-8.145-6.688-5.208a.408.408,0,0,1,.237-.729l8.472-.282,2.887-7.97A.407.407,0,0,1,193.3,72.673Z" transform="translate(-154.481 -60.721)" fill="#f2ebda"></path><path id="Path_6742" data-name="Path 6742" d="M156.831,478.943h-8.225v1.724a1.845,1.845,0,0,1-1.845,1.845H110.78a.485.485,0,0,1-.485-.485v1.764a.485.485,0,0,0,.485.485h46.05a.485.485,0,0,0,.485-.485v-4.363A.485.485,0,0,0,156.831,478.943Z" transform="translate(-95.367 -401.661)" fill="#efb635"></path></svg>