<svg xmlns="http://www.w3.org/2000/svg" id="trophy_3_" data-name="trophy (3)" width="59.81" height="82.616" viewBox="0 0 59.81 82.616"><path id="Path_6702" data-name="Path 6702" d="M244.148,316.83v-8.651a4.364,4.364,0,0,1-1.04.126H239.54a4.364,4.364,0,0,1-1.04-.126v8.651Z" transform="translate(-211.419 -258.452)" fill="#ffaf10"></path><path id="Path_6703" data-name="Path 6703" d="M241,316.83V308.3H239.54a4.364,4.364,0,0,1-1.04-.126v8.651Z" transform="translate(-211.419 -258.452)" fill="#ef9614"></path><path id="Path_6704" data-name="Path 6704" d="M224.06,279.165a17.3,17.3,0,0,1-6.146-1.123v.8a4.361,4.361,0,0,0,4.361,4.361h3.568a4.361,4.361,0,0,0,4.361-4.361v-.8A17.3,17.3,0,0,1,224.06,279.165Z" transform="translate(-194.155 -233.178)" fill="#ffd00d"></path><path id="Path_6705" data-name="Path 6705" d="M222.914,279.126a17.258,17.258,0,0,1-5-1.084v.8a4.361,4.361,0,0,0,4.361,4.361h3.568a4.376,4.376,0,0,0,.71-.058A4.362,4.362,0,0,1,222.914,279.126Z" transform="translate(-194.155 -233.178)" fill="#ffaf10"></path><path id="Path_6706" data-name="Path 6706" d="M229.586,363.55v-2.743a.809.809,0,0,0-.807-.807H217.807a.809.809,0,0,0-.807.807v2.743Z" transform="translate(-193.388 -301.911)" fill="#ef8318"></path><path id="Path_6707" data-name="Path 6707" d="M221.841,363.55v-2.743a.809.809,0,0,1,.807-.807h-4.841a.809.809,0,0,0-.807.807v2.743Z" transform="translate(-193.388 -301.911)" fill="#db722c"></path><path id="Path_6708" data-name="Path 6708" d="M192,394.038V380.807a.809.809,0,0,0-.807-.807H162.307a.809.809,0,0,0-.807.807v13.231Z" transform="translate(-146.843 -318.684)" fill="#a05f33"></path><path id="Path_6709" data-name="Path 6709" d="M164,394.038V380.807a.809.809,0,0,1,.807-.807h-2.5a.809.809,0,0,0-.807.807v13.231Z" transform="translate(-146.843 -318.684)" fill="#87502a"></path><path id="Path_6710" data-name="Path 6710" d="M210.607,405.584a.809.809,0,0,1-.807.807H189.785a.809.809,0,0,1-.807-.807v-6.777a.809.809,0,0,1,.807-.807H209.8a.809.809,0,0,1,.807.807Z" transform="translate(-169.888 -333.779)" fill="#293d7c"></path><path id="Path_6711" data-name="Path 6711" d="M192.2,405.584v-6.777a.809.809,0,0,1,.807-.807h-3.223a.809.809,0,0,0-.807.807v6.777a.809.809,0,0,0,.807.807h3.223A.809.809,0,0,1,192.2,405.584Z" transform="translate(-169.888 -333.779)" fill="#1a2b63"></path><path id="Path_6712" data-name="Path 6712" d="M173.581,466H136.307a.809.809,0,0,0-.807.807v1.509a39.569,39.569,0,0,0,38.887,0v-1.509A.809.809,0,0,0,173.581,466Z" transform="translate(-125.039 -390.807)" fill="#bf7e52"></path><path id="Path_6713" data-name="Path 6713" d="M140.421,466.807a.809.809,0,0,1,.807-.807h-4.921a.809.809,0,0,0-.807.807v1.509a39.391,39.391,0,0,0,4.921,2.351Z" transform="translate(-125.039 -390.807)" fill="#aa6b3f"></path><path id="Path_6714" data-name="Path 6714" d="M372.348,25.591h-6.253v1.357a.646.646,0,0,1-.645.645h-2.708a.161.161,0,0,0-.161.161v1.87h8.458a25.815,25.815,0,0,1-8.458,17.868v2.576a17.438,17.438,0,0,1-.219,2.754A29.89,29.89,0,0,0,375.1,28.347,2.759,2.759,0,0,0,372.348,25.591Z" transform="translate(-315.294 -21.462)" fill="#ffaf10"></path><path id="Path_6715" data-name="Path 6715" d="M83.192,50.068V47.493a25.815,25.815,0,0,1-8.458-17.868h8.458v-1.87a.161.161,0,0,0-.161-.161H80.322a.646.646,0,0,1-.645-.645V25.591H73.424a2.759,2.759,0,0,0-2.756,2.756A29.891,29.891,0,0,0,83.411,52.823,17.44,17.44,0,0,1,83.192,50.068Z" transform="translate(-70.668 -21.462)" fill="#ffd00d"></path><path id="Path_6716" data-name="Path 6716" d="M147.282,38V60.475a17.543,17.543,0,0,0,35.085,0V38Z" transform="translate(-134.92 -31.868)" fill="#ef8318"></path><g id="Group_1804" data-name="Group 1804" transform="translate(12.362 5.971)"><path id="Path_6717" data-name="Path 6717" d="M150.786,59.639V37h-3.5V59.639a17.543,17.543,0,0,0,17.543,17.543c.587,0,1.167-.031,1.74-.088A17.545,17.545,0,0,1,150.786,59.639Z" transform="translate(-147.282 -37.003)" fill="#db722c"></path><ellipse id="Ellipse_260" data-name="Ellipse 260" cx="11.941" cy="11.941" rx="11.941" ry="11.941" transform="translate(5.602 7.18)" fill="#db722c"></ellipse></g><path id="Path_6718" data-name="Path 6718" d="M185.066,93.44A11.94,11.94,0,0,1,195.473,81.6a11.941,11.941,0,1,0,0,23.678A11.94,11.94,0,0,1,185.066,93.44Z" transform="translate(-164.036 -68.348)" fill="#c95e23"></path><path id="Path_6719" data-name="Path 6719" d="M220.041,124.9a1.284,1.284,0,0,1-.6-.159l-3.251-1.709a.861.861,0,0,0-.611,0l-3.251,1.709a1.287,1.287,0,0,1-.6.159.969.969,0,0,1-.754-.344,1.157,1.157,0,0,1-.222-.96l.621-3.62a.857.857,0,0,0-.189-.581l-2.63-2.564a1.041,1.041,0,0,1,.6-1.853l3.634-.528a.857.857,0,0,0,.494-.359l1.625-3.293a1.041,1.041,0,0,1,1.948,0l1.625,3.293a.856.856,0,0,0,.494.359l3.634.528a1.041,1.041,0,0,1,.6,1.853l-2.63,2.564a.856.856,0,0,0-.189.581l.621,3.62a1.158,1.158,0,0,1-.222.96A.969.969,0,0,1,220.041,124.9Z" transform="translate(-185.98 -92.355)" fill="#ffd00d"></path><path id="Path_6720" data-name="Path 6720" d="M213.415,147.358l.673-3.922a.929.929,0,0,0-.2-.629l-2.85-2.778a1.2,1.2,0,0,1-.386-1.158l-1.491.217a1.041,1.041,0,0,0-.6,1.853l2.63,2.564a.857.857,0,0,1,.189.581l-.621,3.62a1.158,1.158,0,0,0,.222.96.969.969,0,0,0,.754.344,1.286,1.286,0,0,0,.6-.159l1.206-.634A1.327,1.327,0,0,1,213.415,147.358Z" transform="translate(-185.978 -116.463)" fill="#ffaf10"></path><path id="Path_6721" data-name="Path 6721" d="M167.615,5.486a.809.809,0,0,1-.807.807h-40.5a.809.809,0,0,1-.807-.807V.807A.809.809,0,0,1,126.307,0h40.5a.809.809,0,0,1,.807.807Z" transform="translate(-116.652)" fill="#ffd00d"></path><path id="Path_6722" data-name="Path 6722" d="M130.421,5.486V.807A.809.809,0,0,1,131.228,0h-4.921a.809.809,0,0,0-.807.807V5.486a.809.809,0,0,0,.807.807h4.921A.809.809,0,0,1,130.421,5.486Z" transform="translate(-116.652)" fill="#ffaf10"></path><g id="Group_1805" data-name="Group 1805" transform="translate(16.189 5.163)"><path id="Path_6725" data-name="Path 6725" d="M233.52,410.614h-8.713a.807.807,0,0,1,0-1.614h8.713a.807.807,0,0,1,0,1.614Z" transform="translate(-215.448 -348.168)" fill="#fff"></path><path id="Path_6726" data-name="Path 6726" d="M241.648,428.614h-4.841a.807.807,0,0,1,0-1.614h4.841a.807.807,0,1,1,0,1.614Z" transform="translate(-225.512 -363.263)" fill="#fff"></path><path id="Path_6727" data-name="Path 6727" d="M174.873,39.745a.363.363,0,0,1-.344-.247c-.7-2.064-1.218-2.585-3.282-3.282a.363.363,0,0,1,0-.688c2.064-.7,2.585-1.218,3.282-3.282a.363.363,0,0,1,.688,0c.7,2.064,1.218,2.585,3.282,3.282a.363.363,0,0,1,0,.688c-2.064.7-2.585,1.218-3.282,3.282A.363.363,0,0,1,174.873,39.745Z" transform="translate(-171 -32)" fill="#fff"></path></g></svg>