<svg xmlns="http://www.w3.org/2000/svg" xmlns:xlink="http://www.w3.org/1999/xlink" width="145.791" height="46" viewBox="0 0 145.791 46">
  <defs>
    <radialGradient id="radial-gradient" cx="0.422" cy="0.393" r="0.743" gradientTransform="matrix(0.82, -0.572, 0.572, 0.82, -2.211, 0.275)" gradientUnits="objectBoundingBox">
      <stop offset="0" stop-color="#fff"/>
      <stop offset="0.364" stop-color="#f1f0ef"/>
      <stop offset="1" stop-color="#343433"/>
    </radialGradient>
    <radialGradient id="radial-gradient-2" cx="-1035.984" cy="119.25" r="2344.822" gradientTransform="matrix(-0.42, 0.616, -0.329, -0.788, -22229.461, -12990.007)" gradientUnits="objectBoundingBox">
      <stop offset="0.027" stop-color="#fff"/>
      <stop offset="0.407" stop-color="#abcf37"/>
      <stop offset="1" stop-color="#086e38"/>
    </radialGradient>
    <radialGradient id="radial-gradient-3" cx="984.736" cy="-1124.689" r="2973.642" gradientTransform="matrix(-0.408, 0.644, -0.344, -0.765, -25392.6, -14465.226)" xlink:href="#radial-gradient-2"/>
    <radialGradient id="radial-gradient-4" cx="-6.583" cy="-0.065" r="5.473" gradientTransform="matrix(-1.101, 0.616, -0.862, -0.788, -178.859, 0.347)" xlink:href="#radial-gradient-2"/>
    <linearGradient id="linear-gradient" x1="-3090.783" y1="6693.763" x2="-2723.201" y2="6714.564" gradientTransform="matrix(1, 0, 0, 1, 0, 0)" xlink:href="#radial-gradient-2"/>
    <radialGradient id="radial-gradient-5" cx="-445.939" cy="82.201" r="542.083" gradientTransform="matrix(0.89, -0.29, 0.259, 0.92, -1993, -268.364)" xlink:href="#radial-gradient-2"/>
    <linearGradient id="linear-gradient-2" x1="-1608.895" y1="3072.691" x2="-1403.168" y2="3083.356" gradientTransform="matrix(1, 0, 0, 1, 0, 0)" xlink:href="#radial-gradient-2"/>
    <radialGradient id="radial-gradient-6" cx="-271.654" cy="51.425" r="288.854" gradientTransform="matrix(0.971, -0.29, 0.283, 0.92, -884.9, -174.14)" xlink:href="#radial-gradient-2"/>
    <linearGradient id="linear-gradient-3" x1="-5210.625" y1="12988.285" x2="-4584.082" y2="13028.994" gradientTransform="matrix(1, 0, 0, 1, 0, 0)" xlink:href="#radial-gradient-2"/>
    <radialGradient id="radial-gradient-7" cx="-757.687" cy="242.556" r="1104.549" gradientTransform="matrix(0.775, -0.29, 0.226, 0.92, -3919.532, -325.265)" xlink:href="#radial-gradient-2"/>
    <linearGradient id="linear-gradient-4" x1="-16543.908" y1="37106.531" x2="-16543.783" y2="37106.535" gradientTransform="matrix(1, 0, 0, 1, 0, 0)" xlink:href="#radial-gradient-2"/>
    <radialGradient id="radial-gradient-8" cx="0.498" cy="0.497" r="0.465" gradientTransform="matrix(1.158, -0.29, 0.337, 0.92, -9898.462, -1819.179)" xlink:href="#radial-gradient-2"/>
    <linearGradient id="linear-gradient-5" x1="-2065.765" y1="4336.49" x2="-1806.8" y2="4351.05" gradientTransform="matrix(1, 0, 0, 1, 0, 0)" xlink:href="#radial-gradient-2"/>
    <radialGradient id="radial-gradient-9" cx="-330.24" cy="71.478" r="391.078" gradientTransform="matrix(0.895, -0.29, 0.261, 0.92, -1292.484, -191.807)" xlink:href="#radial-gradient-2"/>
    <linearGradient id="linear-gradient-6" x1="-900.204" y1="1159.581" x2="-787.961" y2="1163.557" gradientTransform="matrix(1, 0, 0, 1, 0, 0)" xlink:href="#radial-gradient-2"/>
    <radialGradient id="radial-gradient-10" cx="-139.485" cy="-6.967" r="91.17" gradientTransform="matrix(1.421, -0.29, 0.414, 0.92, -135.152, -133.743)" xlink:href="#radial-gradient-2"/>
    <linearGradient id="linear-gradient-7" x1="-709.28" y1="667.091" x2="-621.46" y2="669.391" gradientTransform="matrix(1, 0, 0, 1, 0, 0)" xlink:href="#radial-gradient-2"/>
    <radialGradient id="radial-gradient-11" cx="-132.118" cy="-4.942" r="59.641" gradientTransform="matrix(1.923, -0.29, 0.56, 0.92, 222.9, -130.333)" xlink:href="#radial-gradient-2"/>
    <linearGradient id="linear-gradient-8" x1="-654.938" y1="567.297" x2="-577.297" y2="569.149" gradientTransform="matrix(1, 0, 0, 1, 0, 0)" xlink:href="#radial-gradient-2"/>
    <linearGradient id="linear-gradient-9" x1="-608.726" y1="964.876" x2="-608.702" y2="964.876" gradientTransform="matrix(1, 0, 0, 1, 0, 0)" xlink:href="#radial-gradient-2"/>
    <radialGradient id="radial-gradient-12" cx="-151.808" cy="-0.017" r="86.85" gradientTransform="matrix(1.58, -0.29, 0.46, 0.92, 5.902, -139.42)" xlink:href="#radial-gradient-2"/>
    <linearGradient id="linear-gradient-10" x1="-964.748" y1="1383.943" x2="-856.279" y2="1388.048" gradientTransform="matrix(1, 0, 0, 1, 0, 0)" xlink:href="#radial-gradient-2"/>
    <radialGradient id="radial-gradient-13" cx="-126.45" cy="-16.988" r="91.844" gradientTransform="matrix(1.33, -0.29, 0.387, 0.92, -242.037, -132.127)" xlink:href="#radial-gradient-2"/>
    <linearGradient id="linear-gradient-11" x1="-733.272" y1="806.414" x2="-651.844" y2="808.804" gradientTransform="matrix(1, 0, 0, 1, 0, 0)" xlink:href="#radial-gradient-2"/>
    <radialGradient id="radial-gradient-14" cx="-132.525" cy="-5.462" r="68.578" gradientTransform="matrix(1.715, -0.29, 0.499, 0.92, 91.57, -130.514)" xlink:href="#radial-gradient-2"/>
    <linearGradient id="linear-gradient-12" x1="-1112.264" y1="1746.652" x2="-977.732" y2="1752.336" gradientTransform="matrix(1, 0, 0, 1, 0, 0)" xlink:href="#radial-gradient-2"/>
    <radialGradient id="radial-gradient-15" cx="-185.93" cy="11.049" r="151.418" gradientTransform="matrix(1.192, -0.29, 0.347, 0.92, -394.726, -150.772)" xlink:href="#radial-gradient-2"/>
    <linearGradient id="linear-gradient-13" x1="-1252.101" y1="2132.113" x2="-1110.607" y2="2138.411" gradientTransform="matrix(1, 0, 0, 1, 0, 0)" xlink:href="#radial-gradient-2"/>
    <radialGradient id="radial-gradient-16" cx="-192.389" cy="7.098" r="168.807" gradientTransform="matrix(1.131, -0.29, 0.329, 0.92, -531.717, -157.849)" xlink:href="#radial-gradient-2"/>
    <radialGradient id="radial-gradient-17" cx="0.5" cy="0.5" r="0.393" gradientTransform="matrix(1.854, 0.425, -0.871, 0.905, -113.176, -15.951)" gradientUnits="objectBoundingBox">
      <stop offset="0" stop-color="#fff"/>
      <stop offset="0.434" stop-color="#ffca07"/>
      <stop offset="1" stop-color="#f48020"/>
    </radialGradient>
    <radialGradient id="radial-gradient-18" cx="0.499" cy="0.5" r="0.409" gradientTransform="matrix(1.559, 0.425, -0.732, 0.905, -322.386, -53.18)" xlink:href="#radial-gradient-17"/>
    <radialGradient id="radial-gradient-19" cx="1600.572" cy="424.423" r="1304.521" gradientTransform="matrix(1.664, -0.11, 0.199, 1.077, -7139.33, 816.342)" xlink:href="#radial-gradient-17"/>
    <radialGradient id="radial-gradient-20" cx="-2025.742" cy="137.093" r="1706.485" gradientTransform="matrix(1.656, -0.144, 0.259, 1.063, -3692.911, 480.604)" xlink:href="#radial-gradient-17"/>
    <radialGradient id="radial-gradient-21" cx="0.493" cy="0.5" r="0.354" gradientTransform="matrix(25.474, 0.425, -11.967, 0.905, -12223.803, -168.785)" xlink:href="#radial-gradient-17"/>
    <radialGradient id="radial-gradient-22" cx="1.019" cy="0.5" r="0.353" gradientUnits="objectBoundingBox">
      <stop offset="0.027" stop-color="#fff"/>
      <stop offset="0.335" stop-color="#46a6dd"/>
      <stop offset="1" stop-color="#242264"/>
    </radialGradient>
    <radialGradient id="radial-gradient-23" cx="0.5" cy="0.5" r="0.366" gradientTransform="matrix(3.378, 0.425, -1.587, 0.905, -671.092, -53.901)" xlink:href="#radial-gradient-17"/>
    <radialGradient id="radial-gradient-24" cx="0.502" cy="0.5" r="0.354" gradientTransform="matrix(12.718, 0.425, -5.975, 0.905, -4115.602, -103.512)" xlink:href="#radial-gradient-17"/>
    <radialGradient id="radial-gradient-25" cx="0.499" cy="0.5" r="0.358" gradientTransform="matrix(6.113, 0.425, -2.872, 0.905, -1461.128, -69.171)" xlink:href="#radial-gradient-17"/>
    <radialGradient id="radial-gradient-26" cx="0.5" cy="0.5" r="0.36" gradientTransform="matrix(4.911, 0.425, -2.307, 0.905, -1083.812, -62.262)" xlink:href="#radial-gradient-17"/>
    <radialGradient id="radial-gradient-27" cx="0.5" cy="0.5" r="0.363" gradientTransform="matrix(4.001, 0.425, -1.88, 0.905, -829.507, -57.19)" xlink:href="#radial-gradient-17"/>
    <radialGradient id="radial-gradient-28" cx="0.499" cy="0.5" r="0.356" gradientTransform="matrix(8.115, 0.425, -3.812, 0.905, -2154.441, -79.677)" xlink:href="#radial-gradient-17"/>
    <radialGradient id="radial-gradient-29" cx="0.5" cy="0.5" r="0.37" gradientTransform="matrix(2.929, 0.425, -1.376, 0.905, -555.859, -50.864)" xlink:href="#radial-gradient-17"/>
    <radialGradient id="radial-gradient-30" cx="0.5" cy="0.5" r="0.397" gradientTransform="matrix(1.782, 0.425, -0.837, 0.905, -55.147, -8.148)" xlink:href="#radial-gradient-17"/>
    <radialGradient id="radial-gradient-31" cx="0.5" cy="0.5" r="0.376" gradientTransform="matrix(2.513, 0.425, -1.181, 0.905, -465.799, -49.025)" xlink:href="#radial-gradient-17"/>
    <radialGradient id="radial-gradient-32" cx="0.502" cy="0.498" r="0.374" gradientTransform="matrix(-2.91, 0.11, -0.321, -0.994, -209907.891, 1663.474)" xlink:href="#radial-gradient-17"/>
    <radialGradient id="radial-gradient-33" cx="1198.872" cy="84.327" r="465.039" gradientTransform="matrix(-2.876, -0.187, 0.605, -1.086, -259613, -20126.297)" xlink:href="#radial-gradient-17"/>
    <radialGradient id="radial-gradient-34" cx="0.504" cy="0.498" r="0.363" gradientTransform="matrix(-4.152, 0.11, -0.459, -0.994, -186360.281, 2028.909)" xlink:href="#radial-gradient-17"/>
    <radialGradient id="radial-gradient-35" cx="785.128" cy="52.616" r="206.616" gradientTransform="matrix(-4.103, -0.187, 0.863, -1.086, -230794.453, -12015.63)" xlink:href="#radial-gradient-17"/>
    <radialGradient id="radial-gradient-36" cx="0.496" cy="0.501" r="0.386" gradientTransform="matrix(-2.299, 0.11, -0.254, -0.994, -299109.469, 793.45)" xlink:href="#radial-gradient-17"/>
    <radialGradient id="radial-gradient-37" cx="1783.963" cy="113.401" r="888.368" gradientTransform="matrix(-2.272, -0.187, 0.478, -1.086, -368294.563, -37195.648)" xlink:href="#radial-gradient-17"/>
    <radialGradient id="radial-gradient-38" cx="0.457" cy="0.495" r="0.598" gradientTransform="matrix(-0.788, 0.11, -0.087, -0.994, -520527.438, -54092)" xlink:href="#radial-gradient-17"/>
    <radialGradient id="radial-gradient-39" cx="0.457" cy="0.495" r="0.585" gradientTransform="matrix(-0.779, -0.187, 0.164, -1.086, -621603.938, -210096.953)" xlink:href="#radial-gradient-17"/>
    <radialGradient id="radial-gradient-40" cx="0.495" cy="0.5" r="0.364" gradientTransform="matrix(-3.636, 0.11, -0.402, -0.994, -209764.5, 2152.393)" xlink:href="#radial-gradient-17"/>
    <radialGradient id="radial-gradient-41" cx="864.999" cy="64.67" r="266.072" gradientTransform="matrix(-3.594, -0.187, 0.756, -1.086, -258848.297, -15623.695)" xlink:href="#radial-gradient-17"/>
    <radialGradient id="radial-gradient-42" cx="0.506" cy="0.501" r="0.354" gradientTransform="matrix(1, 0, 0, 1, 0, 0)" xlink:href="#radial-gradient-17"/>
    <radialGradient id="radial-gradient-43" cx="1835.879" cy="38.55" r="78.381" gradientTransform="matrix(1, 0, 0, 1, 0, 0)" xlink:href="#radial-gradient-17"/>
    <radialGradient id="radial-gradient-44" cx="0.485" cy="0.5" r="0.354" xlink:href="#radial-gradient-22"/>
    <radialGradient id="radial-gradient-45" cx="10158.392" cy="34.817" r="70.364" xlink:href="#radial-gradient-22"/>
    <radialGradient id="radial-gradient-46" cx="0.486" cy="0.501" r="0.354" gradientTransform="matrix(1, 0, 0, 1, 0, 0)" xlink:href="#radial-gradient-17"/>
    <radialGradient id="radial-gradient-47" cx="568.222" cy="48.682" r="58.826" gradientTransform="matrix(1, 0, 0, 1, 0, 0)" xlink:href="#radial-gradient-17"/>
    <radialGradient id="radial-gradient-48" cx="0.492" cy="0.5" r="0.354" xlink:href="#radial-gradient-22"/>
    <radialGradient id="radial-gradient-49" cx="1291.261" cy="33.317" r="55.041" xlink:href="#radial-gradient-22"/>
    <radialGradient id="radial-gradient-50" cx="0.48" cy="0.5" r="0.356" gradientTransform="matrix(-7.787, 0.11, -0.86, -0.994, -362820.531, 3386.839)" xlink:href="#radial-gradient-17"/>
    <radialGradient id="radial-gradient-51" cx="842.029" cy="43.652" r="116.95" gradientTransform="matrix(-7.696, -0.187, 1.619, -1.086, -449779.969, -11826.885)" xlink:href="#radial-gradient-17"/>
    <radialGradient id="radial-gradient-52" cx="0.492" cy="0.5" r="0.357" gradientTransform="matrix(-6.054, 0.11, -0.669, -0.994, -291419.313, 3036.525)" xlink:href="#radial-gradient-17"/>
    <radialGradient id="radial-gradient-53" cx="745.789" cy="49.221" r="136.286" gradientTransform="matrix(-5.983, -0.187, 1.259, -1.086, -360014.969, -12414.507)" xlink:href="#radial-gradient-17"/>
    <radialGradient id="radial-gradient-54" cx="4.509" cy="4.93" r="6.035" gradientTransform="matrix(-1.046, 0.165, -0.191, -1.082, -555.954, -56.126)" xlink:href="#radial-gradient-17"/>
    <radialGradient id="radial-gradient-55" cx="8.003" cy="10.526" r="16.159" gradientTransform="matrix(-0.891, 0.165, -0.163, -1.082, -1179.367, -172.911)" xlink:href="#radial-gradient-17"/>
    <radialGradient id="radial-gradient-56" cx="21.305" cy="-59.736" r="122.54" gradientTransform="matrix(-0.258, 0.165, -0.047, -1.082, -1733.661, -2134.469)" xlink:href="#radial-gradient-17"/>
    <radialGradient id="radial-gradient-57" cx="36.192" cy="-122.066" r="257.365" gradientTransform="matrix(-0.19, 0.165, -0.035, -1.082, -2573.593, -4688.338)" xlink:href="#radial-gradient-17"/>
    <radialGradient id="radial-gradient-58" cx="224.84" cy="68.966" r="59.458" gradientTransform="matrix(-4.33, 0.165, -0.793, -1.082, -58594.051, 848.094)" xlink:href="#radial-gradient-17"/>
    <radialGradient id="radial-gradient-59" cx="192.691" cy="56.648" r="35.658" gradientTransform="matrix(-6.133, 0.165, -1.123, -1.082, -66039.492, 983.332)" xlink:href="#radial-gradient-17"/>
    <radialGradient id="radial-gradient-60" cx="14.943" cy="-346.638" r="251.873" gradientTransform="matrix(-0.191, 0.11, -0.021, -0.994, -2561.749, -3696.55)" xlink:href="#radial-gradient-17"/>
    <radialGradient id="radial-gradient-61" cx="8.027" cy="-219.574" r="162.917" gradientTransform="matrix(-0.273, 0.11, -0.03, -0.994, -2508.863, -2297.199)" xlink:href="#radial-gradient-17"/>
    <radialGradient id="radial-gradient-62" cx="6.575" cy="-161.227" r="118.199" gradientTransform="matrix(-0.214, 0.11, -0.024, -0.994, -1359.342, -1699.501)" xlink:href="#radial-gradient-17"/>
    <radialGradient id="radial-gradient-63" cx="27.785" cy="3.861" r="3.06" gradientTransform="matrix(-18.439, 0.11, -2.037, -0.994, -46935.945, 234.522)" xlink:href="#radial-gradient-17"/>
    <radialGradient id="radial-gradient-64" cx="-0.102" cy="0.073" r="4.264" gradientTransform="matrix(-0.862, 0.11, -0.095, -0.994, -298.633, -35.481)" xlink:href="#radial-gradient-17"/>
    <radialGradient id="radial-gradient-65" cx="639.016" cy="205.556" r="266.074" gradientTransform="matrix(-5.654, 0.11, -0.625, -0.994, -441214.219, 4260.059)" xlink:href="#radial-gradient-17"/>
    <radialGradient id="radial-gradient-66" cx="15.486" cy="46.856" r="36.112" gradientTransform="matrix(-0.854, 0.11, -0.094, -0.994, -2464.881, -211.549)" xlink:href="#radial-gradient-17"/>
  </defs>
  <g id="Logo" transform="translate(-973.092 -607.886)">
    <g id="Group_1987" data-name="Group 1987" transform="translate(973.092 611.36)">
      <g id="Group_1986" data-name="Group 1986" transform="translate(0.034 0.033)" opacity="0.8" style="mix-blend-mode: screen;isolation: isolate">
        <path id="Path_7101" data-name="Path 7101" d="M991.943,657.518c-.365-.009-.692-.025-1-.047l-.057,0c-.309-.023-.642-.057-1.017-.1-.086-.011-.17-.023-.255-.035l-.087-.012q-.35-.048-.7-.109l-.06-.011c-.1-.017-.2-.034-.3-.054-.273-.052-.543-.11-.813-.173,0,0-.211-.049-.287-.068-.276-.069-.55-.143-.821-.223-.127-.038-.253-.076-.379-.117l-.049-.016c-.177-.056-.353-.111-.528-.174l-.164-.054c-.074-.024-.146-.048-.22-.075l-.23-.085c-.14-.051-.279-.1-.417-.159a14.241,14.241,0,0,1-3.8-2.221l-.088-.005v-.02c.016,0,.027-.012.031-.027l0-.02-.016-.013.026-2.24.171.023-.084-.07a19.389,19.389,0,0,1-3.226-3.48,5.542,5.542,0,0,1-1.946-.865c-.035-.024-.066-.047-.093-.069-.792-.644-3.183-4.112-3.467-9-.017-.289-.025-.579-.03-.869l0-.187c0-.29,0-.58.009-.87l0-.043c.009-.28.025-.56.045-.839l.012-.165c.023-.288.05-.577.084-.864l.013-.1c.032-.26.069-.517.109-.776l.026-.169q.068-.414.151-.825l.038-.181c.048-.226.1-.452.154-.676l.049-.206q.1-.381.2-.757l.08-.271c.054-.18.11-.36.17-.539,0,0,.069-.215.09-.278.075-.222.155-.442.236-.66.046-.123.094-.244.141-.367s.1-.242.147-.363q.141-.343.294-.679l.115-.253c.072-.154.145-.306.221-.458l.074-.146c.163-.324.332-.64.5-.94q.534-.937,1.078-1.706l.007,0a17.186,17.186,0,0,1,2.875-3.172l.009-.008.014-.03.072-.061.059-.047c.039-.035.076-.069.115-.1l.053-.029,2.479.543-.078.206.22-.164c.09-.067.179-.133.271-.2a19.215,19.215,0,0,1,11.044-3.479,19.45,19.45,0,0,1,5.151.695,8.4,8.4,0,0,1,.985-.063,5.528,5.528,0,0,1,.752.049c1.344.188,6.338,2.3,9.688,7.1,4.5,6.456,5.491,15.185,2.453,21.721l-.006.012.01.025-.051.087c-.059.117-.118.234-.18.349l-3.2.94-.017-.113-.046.062a19.279,19.279,0,0,1-3.344,3.482c-.051.125-.1.232-.144.332-.013.031-.026.059-.039.082a10.08,10.08,0,0,1-2.979,2.792,13.22,13.22,0,0,1-4.126,1.953c-.367.1-.746.183-1.124.259l-.478.1q-.393.078-.79.141l-.06.01c-.077.012-.154.025-.231.035a20.992,20.992,0,0,1-2.116.193l-.3.009c-.184,0-.369.007-.554.007ZM983.09,653.4l.012.063.432-.081.106-.021-.1-.04-.011-.007Z" transform="translate(-972.049 -617.267)" fill="#fff"/>
      </g>
      <path id="Path_7102" data-name="Path 7102" d="M1013.353,625.445a19.367,19.367,0,1,1-26.965-4.8A19.368,19.368,0,0,1,1013.353,625.445Z" transform="translate(-976.232 -617.158)" fill="url(#radial-gradient)"/>
      <path id="Path_7103" data-name="Path 7103" d="M1085.5,705.049c.233-.2,1-.807,1.166-.987a9.822,9.822,0,0,0-2.68-5.925A9.44,9.44,0,0,1,1085.5,705.049Z" transform="translate(-1050.003 -673.577)" fill="#009147" opacity="0.4" style="mix-blend-mode: multiply;isolation: isolate"/>
      <path id="Path_7104" data-name="Path 7104" d="M1082.612,689.3c.4.216.785.454,1.164.707A12.867,12.867,0,0,0,1082.612,689.3Z" transform="translate(-1049.046 -667.422)" fill="none"/>
      <path id="Path_7105" data-name="Path 7105" d="M1081.3,688.627c.122.061.247.121.367.189C1081.545,688.75,1081.423,688.688,1081.3,688.627Z" transform="translate(-1048.132 -666.951)" fill="none"/>
      <path id="Path_7106" data-name="Path 7106" d="M1082.511,689.249l.031.016Z" transform="translate(-1048.975 -667.385)" fill="url(#radial-gradient-2)"/>
      <path id="Path_7107" data-name="Path 7107" d="M1082.511,689.249l.031.016Z" transform="translate(-1048.975 -667.385)" fill="url(#radial-gradient-3)"/>
      <path id="Path_7108" data-name="Path 7108" d="M1086.451,691.633a15.677,15.677,0,0,1,5.244,7.2c.026.076.049.157.076.233A13.7,13.7,0,0,0,1086.451,691.633Z" transform="translate(-1051.721 -669.046)" fill="url(#radial-gradient-4)"/>
      <path id="Path_7109" data-name="Path 7109" d="M1096.346,701.6c.065.1.131.2.2.3C1096.478,701.8,1096.411,701.7,1096.346,701.6Z" transform="translate(-1058.614 -675.988)" fill="none"/>
      <path id="Path_7110" data-name="Path 7110" d="M1097.272,703.044c.06.1.12.2.177.3C1097.391,703.239,1097.332,703.142,1097.272,703.044Z" transform="translate(-1059.26 -676.996)" fill="none"/>
      <path id="Path_7111" data-name="Path 7111" d="M1090.026,694.4c.106.093.21.187.313.284C1090.236,694.59,1090.132,694.5,1090.026,694.4Z" transform="translate(-1054.211 -670.975)" fill="none"/>
      <path id="Path_7112" data-name="Path 7112" d="M1098.164,704.572c.053.1.107.19.157.289C1098.27,704.762,1098.217,704.668,1098.164,704.572Z" transform="translate(-1059.881 -678.06)" fill="none"/>
      <path id="Path_7113" data-name="Path 7113" d="M1095.38,700.233q.111.148.215.3Q1095.491,700.381,1095.38,700.233Z" transform="translate(-1057.942 -675.037)" fill="none"/>
      <path id="Path_7114" data-name="Path 7114" d="M1099.015,706.191c.047.091.093.183.139.278C1099.108,706.374,1099.062,706.282,1099.015,706.191Z" transform="translate(-1060.474 -679.188)" fill="none"/>
      <path id="Path_7115" data-name="Path 7115" d="M1093.345,697.715q.128.142.252.293Q1093.473,697.857,1093.345,697.715Z" transform="translate(-1056.523 -673.283)" fill="none"/>
      <path id="Path_7116" data-name="Path 7116" d="M1092.271,696.543c.092.1.183.192.272.292C1092.454,696.735,1092.363,696.64,1092.271,696.543Z" transform="translate(-1055.776 -672.466)" fill="none"/>
      <path id="Path_7117" data-name="Path 7117" d="M1091.166,695.442c.1.094.2.191.292.29C1091.362,695.633,1091.264,695.536,1091.166,695.442Z" transform="translate(-1055.005 -671.699)" fill="none"/>
      <path id="Path_7118" data-name="Path 7118" d="M1094.381,698.935c.079.1.157.2.233.3C1094.538,699.131,1094.46,699.033,1094.381,698.935Z" transform="translate(-1057.245 -674.133)" fill="none"/>
      <path id="Path_7119" data-name="Path 7119" d="M1088.861,693.422c.112.091.222.183.332.278C1089.083,693.6,1088.973,693.513,1088.861,693.422Z" transform="translate(-1053.4 -670.292)" fill="none"/>
      <path id="Path_7120" data-name="Path 7120" d="M1080.745,688.374l.031.016c.4.216.786.454,1.164.707.123.085.244.171.365.26a13.159,13.159,0,0,0-2.329-1.364c.134.064.269.124.4.192S1080.624,688.307,1080.745,688.374Z" transform="translate(-1047.209 -666.51)" fill="none"/>
      <path id="Path_7121" data-name="Path 7121" d="M1087.664,692.5c.118.087.235.177.35.269C1087.9,692.678,1087.782,692.588,1087.664,692.5Z" transform="translate(-1052.566 -669.65)" fill="none"/>
      <path id="Path_7122" data-name="Path 7122" d="M1100.632,709.763c.03.075.061.147.089.221C1100.693,709.91,1100.662,709.838,1100.632,709.763Z" transform="translate(-1061.601 -681.677)" fill="none"/>
      <path id="Path_7123" data-name="Path 7123" d="M1099.828,707.892c.041.088.081.174.119.262C1099.909,708.066,1099.869,707.98,1099.828,707.892Z" transform="translate(-1061.04 -680.374)" fill="none"/>
      <path id="Path_7124" data-name="Path 7124" d="M1089.955,694.337l.022.02Z" transform="translate(-1054.162 -670.93)" fill="url(#linear-gradient)"/>
      <path id="Path_7125" data-name="Path 7125" d="M1089.955,694.337l.022.02Z" transform="translate(-1054.162 -670.93)" fill="url(#radial-gradient-5)" style="mix-blend-mode: multiply;isolation: isolate"/>
      <path id="Path_7126" data-name="Path 7126" d="M1092.129,696.4l.043.044Z" transform="translate(-1055.676 -672.366)" fill="url(#linear-gradient-2)"/>
      <path id="Path_7127" data-name="Path 7127" d="M1092.129,696.4l.043.044Z" transform="translate(-1055.676 -672.366)" fill="url(#radial-gradient-6)" style="mix-blend-mode: multiply;isolation: isolate"/>
      <path id="Path_7128" data-name="Path 7128" d="M1088.819,693.388l.013.01Z" transform="translate(-1053.37 -670.268)" fill="url(#linear-gradient-3)"/>
      <path id="Path_7129" data-name="Path 7129" d="M1088.819,693.388l.013.01Z" transform="translate(-1053.37 -670.268)" fill="url(#radial-gradient-7)" style="mix-blend-mode: multiply;isolation: isolate"/>
      <path id="Path_7130" data-name="Path 7130" d="M1087.654,692.489l0,0Z" transform="translate(-1052.559 -669.642)" fill="url(#linear-gradient-4)"/>
      <path id="Path_7131" data-name="Path 7131" d="M1087.654,692.489l0,0Z" transform="translate(-1052.559 -669.642)" fill="url(#radial-gradient-8)" style="mix-blend-mode: multiply;isolation: isolate"/>
      <path id="Path_7132" data-name="Path 7132" d="M1091.057,695.34a.358.358,0,0,0,.033.031A.358.358,0,0,1,1091.057,695.34Z" transform="translate(-1054.93 -671.628)" fill="url(#linear-gradient-5)"/>
      <path id="Path_7133" data-name="Path 7133" d="M1091.057,695.34a.358.358,0,0,0,.033.031A.358.358,0,0,1,1091.057,695.34Z" transform="translate(-1054.93 -671.628)" fill="url(#radial-gradient-9)" style="mix-blend-mode: multiply;isolation: isolate"/>
      <path id="Path_7134" data-name="Path 7134" d="M1096.088,701.215c.025.039.052.077.078.116Z" transform="translate(-1058.435 -675.722)" fill="url(#linear-gradient-6)"/>
      <path id="Path_7135" data-name="Path 7135" d="M1096.088,701.215c.025.039.052.077.078.116Z" transform="translate(-1058.435 -675.722)" fill="url(#radial-gradient-10)" style="mix-blend-mode: multiply;isolation: isolate"/>
      <path id="Path_7136" data-name="Path 7136" d="M1098.683,705.524c.035.066.067.133.1.2C1098.75,705.657,1098.718,705.59,1098.683,705.524Z" transform="translate(-1060.243 -678.724)" fill="url(#linear-gradient-7)"/>
      <path id="Path_7137" data-name="Path 7137" d="M1098.683,705.524c.035.066.067.133.1.2C1098.75,705.657,1098.718,705.59,1098.683,705.524Z" transform="translate(-1060.243 -678.724)" fill="url(#radial-gradient-11)" style="mix-blend-mode: multiply;isolation: isolate"/>
      <path id="Path_7138" data-name="Path 7138" d="M1099.472,707.107c.037.077.073.159.108.238C1099.545,707.266,1099.509,707.184,1099.472,707.107Z" transform="translate(-1060.792 -679.827)" fill="url(#linear-gradient-8)"/>
      <path id="Path_7139" data-name="Path 7139" d="M1096.991,702.58l.085.141Z" transform="translate(-1059.064 -676.673)" fill="url(#linear-gradient-9)"/>
      <path id="Path_7140" data-name="Path 7140" d="M1096.991,702.58l.085.141Z" transform="translate(-1059.064 -676.673)" fill="url(#radial-gradient-12)" style="mix-blend-mode: multiply;isolation: isolate"/>
      <path id="Path_7141" data-name="Path 7141" d="M1095.149,699.912l.07.1Z" transform="translate(-1057.781 -674.814)" fill="url(#linear-gradient-10)"/>
      <path id="Path_7142" data-name="Path 7142" d="M1095.149,699.912l.07.1Z" transform="translate(-1057.781 -674.814)" fill="url(#radial-gradient-13)" style="mix-blend-mode: multiply;isolation: isolate"/>
      <path id="Path_7143" data-name="Path 7143" d="M1097.856,704.02c.031.054.063.113.093.167C1097.919,704.133,1097.888,704.074,1097.856,704.02Z" transform="translate(-1059.667 -677.676)" fill="url(#linear-gradient-11)"/>
      <path id="Path_7144" data-name="Path 7144" d="M1097.856,704.02c.031.054.063.113.093.167C1097.919,704.133,1097.888,704.074,1097.856,704.02Z" transform="translate(-1059.667 -677.676)" fill="url(#radial-gradient-14)" style="mix-blend-mode: multiply;isolation: isolate"/>
      <path id="Path_7145" data-name="Path 7145" d="M1094.177,698.681c.02.025.042.053.062.077C1094.218,698.734,1094.2,698.706,1094.177,698.681Z" transform="translate(-1057.103 -673.956)" fill="url(#linear-gradient-12)"/>
      <path id="Path_7146" data-name="Path 7146" d="M1094.177,698.681c.02.025.042.053.062.077C1094.218,698.734,1094.2,698.706,1094.177,698.681Z" transform="translate(-1057.103 -673.956)" fill="url(#radial-gradient-15)" style="mix-blend-mode: multiply;isolation: isolate"/>
      <path id="Path_7147" data-name="Path 7147" d="M1093.169,697.507c.018.021.036.04.054.063C1093.2,697.547,1093.187,697.528,1093.169,697.507Z" transform="translate(-1056.401 -673.138)" fill="url(#linear-gradient-13)"/>
      <path id="Path_7148" data-name="Path 7148" d="M1093.169,697.507c.018.021.036.04.054.063C1093.2,697.547,1093.187,697.528,1093.169,697.507Z" transform="translate(-1056.401 -673.138)" fill="url(#radial-gradient-16)" style="mix-blend-mode: multiply;isolation: isolate"/>
      <path id="Path_7149" data-name="Path 7149" d="M1033.688,619.293c-2-.28-5.109.636-7.581,2.33-4.122,2.966-6.8,7.815-5.6,11.55a4.013,4.013,0,0,0,.48.966,6.617,6.617,0,0,0,.523.686,6.084,6.084,0,0,0,.506.519c.154.139.319.271.493.4l.008.006a7.633,7.633,0,0,0,1.126.681c.061.029.12.06.182.089.1.045.2.088.3.131.082.034.166.069.253.1s.19.07.286.106.21.071.317.105c.09.029.181.058.272.083.132.039.267.073.4.107.077.018.152.039.232.059.175.041.358.076.542.11.351.06.7.121,1.052.178,1.3.213,2.574.417,3.809.643.548.1,1.091.2,1.624.3,4.149.84,7.76,2.123,10.165,5.452a24.343,24.343,0,0,1,2.544,4.736c3.288-6.541,2.48-15.479-2.229-22.228C1039.958,621.478,1034.885,619.46,1033.688,619.293Z" transform="translate(-1005.577 -618.61)" fill="#3226ff"/>
      <path id="Path_7150" data-name="Path 7150" d="M1044.569,652.868a26.618,26.618,0,0,0-1.981-3.533c-2.389-3.541-6.081-4.864-10.348-5.714-1.567-.312-3.209-.563-4.894-.837-.476-.078-.954-.156-1.438-.24-.234-.038-.46-.086-.68-.135-.078-.018-.154-.038-.231-.057-.136-.033-.271-.068-.4-.105-.091-.025-.181-.053-.272-.083-.106-.033-.211-.067-.316-.1s-.192-.068-.285-.1-.17-.068-.253-.1c-.1-.042-.2-.085-.3-.128l-.18-.089a7.476,7.476,0,0,1-1.124-.676l-.009-.006c-.171-.128-.337-.258-.489-.4a6.009,6.009,0,0,1-.5-.515c-.106-.123-.208-.247-.3-.373a4.238,4.238,0,0,1-.693-1.269c-1.19-3.72,1.5-8.557,5.616-11.522-4.3,2.942-7.146,7.927-5.928,11.738a4.777,4.777,0,0,0,1,1.643,6.141,6.141,0,0,0,.5.516c.154.139.318.269.49.4a.016.016,0,0,1,.008,0,7.29,7.29,0,0,0,1.124.676c.06.03.119.06.18.088.1.044.2.086.3.13.083.036.167.069.253.1s.19.071.287.106.207.071.315.1c.089.027.18.057.271.083.13.037.266.071.4.106.078.018.152.039.232.057.219.05.445.095.679.136l.39.064c.351.058.7.119,1.049.175.226.035.448.073.674.109q.993.16,1.964.322c.427.111.85.223,1.261.341a13.836,13.836,0,0,1,8.7,5.652,14.321,14.321,0,0,1,2.077,5.495l3.256-.965C1045.037,653.869,1044.853,653.428,1044.569,652.868Z" transform="translate(-1004.916 -623.931)" fill="#0b01b4"/>
      <path id="Path_7151" data-name="Path 7151" d="M1000.829,726.65c.217.266.572.737.766.933a9.477,9.477,0,0,0,5.874-1.206A10.253,10.253,0,0,1,1000.829,726.65Z" transform="translate(-992.067 -693.253)" fill="#c2c2c2" opacity="0.4" style="mix-blend-mode: multiply;isolation: isolate"/>
      <path id="Path_7152" data-name="Path 7152" d="M1022.644,737.134h0Z" transform="translate(-1007.263 -700.747)" fill="#fff"/>
      <path id="Path_7153" data-name="Path 7153" d="M1022.644,737.134h0Z" transform="translate(-1007.263 -700.747)" fill="#fff" style="mix-blend-mode: multiply;isolation: isolate"/>
      <path id="Path_7154" data-name="Path 7154" d="M1016.557,693.755a4.724,4.724,0,0,0-3.5,1.787c-.043.052-.095.1-.14.159s-.1.116-.145.177-.08.1-.121.156c-.054.077-.108.155-.163.236-.028.044-.061.089-.089.135-.084.131-.165.265-.246.405-.045.079-.087.157-.13.236l-.351.634c-.076.138-.148.271-.222.409-.352.644-.7,1.28-1.047,1.891l-.12.2a10.1,10.1,0,0,1-5.986,4.31,12.752,12.752,0,0,1-4.563.211l-.171,2.3s-.188,0-.188.007v.008h.221a22.144,22.144,0,0,0,3.484-.513c.04-.009.134-.016.175-.027.09-.02.2-.042.291-.063.034-.01.082-.018.116-.027l.275-.077.091-.027.08-.026c.076-.023.15-.048.224-.072l.042-.015.052-.019a8.477,8.477,0,0,0,2.548-1.418c.187-.127.323-.221.325-.221.076-.066.133-.152.206-.218s.146-.155.222-.229c.031-.03.058-.064.088-.094.158-.162.313-.328.462-.5.081-.091.16-.185.237-.279.128-.157.255-.315.377-.478.093-.122.182-.247.271-.372.062-.087.123-.175.183-.264.156-.228.31-.461.459-.7l.039-.062c.088-.14.177-.277.264-.42.132-.219.259-.443.388-.666.356-.62.706-1.266,1.063-1.915l-.04.059.248-.456c.158-.287.315-.576.481-.868.08-.141.161-.277.244-.407.03-.046.061-.09.092-.135l.162-.237c.039-.053.08-.1.12-.156s.1-.121.143-.179.092-.11.139-.163.086-.094.13-.138.11-.107.159-.164a5.122,5.122,0,0,1,3.195-1.413c3.044.032,6.374,2.633,7.48,5.982C1023.012,696.7,1019.675,693.755,1016.557,693.755Z" transform="translate(-991.054 -670.524)" fill="#c2c2c2"/>
      <path id="Path_7155" data-name="Path 7155" d="M1025.215,705.821a7.255,7.255,0,0,0-.138-5.376c-1.352-3.273-4.422-6-7.481-5.991a4.711,4.711,0,0,0-.824.112,5.1,5.1,0,0,0-2.376,1.363c-.055.053-.113.1-.167.157s-.092.087-.134.137-.1.1-.143.161-.1.117-.147.18-.081.1-.122.159c-.055.077-.112.156-.166.238-.03.046-.063.089-.092.136-.068.105-.133.217-.2.328-.12.213-.241.428-.356.643-.437.8-.858,1.578-1.292,2.326-.188.334-.378.666-.572.986-1.51,2.508-3.239,4.575-6.245,5.444a21.344,21.344,0,0,1-4.094.669c4.21,3.469,11.087,4.786,17.15,3.133A13.334,13.334,0,0,0,1025.215,705.821Z" transform="translate(-991.955 -671.011)" fill="#1b153b"/>
      <path id="Path_7156" data-name="Path 7156" d="M1001.794,629.334c-.354.189-1.314.861-1.579,1.04a11.548,11.548,0,0,0,.408,7.974A12.736,12.736,0,0,1,1001.794,629.334Z" transform="translate(-991.275 -625.641)" fill="#f05a26" opacity="0.63" style="mix-blend-mode: multiply;isolation: isolate"/>
      <path id="Path_7157" data-name="Path 7157" d="M998.151,653.434c-.171-.314-.328-.636-.474-.971A10.356,10.356,0,0,0,998.151,653.434Z" transform="translate(-989.871 -641.755)" fill="url(#radial-gradient-17)"/>
      <path id="Path_7158" data-name="Path 7158" d="M999.449,656.021c-.054-.092-.11-.185-.163-.28C999.339,655.836,999.394,655.93,999.449,656.021Z" transform="translate(-990.992 -644.039)" fill="url(#radial-gradient-18)"/>
      <path id="Path_7159" data-name="Path 7159" d="M999.254,655.687a.2.2,0,0,1-.014-.023A.2.2,0,0,0,999.254,655.687Z" transform="translate(-990.96 -643.986)" fill="url(#radial-gradient-19)"/>
      <path id="Path_7160" data-name="Path 7160" d="M999.254,655.687a.2.2,0,0,1-.014-.023A.2.2,0,0,0,999.254,655.687Z" transform="translate(-990.96 -643.986)" fill="url(#radial-gradient-20)"/>
      <path id="Path_7161" data-name="Path 7161" d="M995.173,640.524c0-.1-.009-.2-.011-.3C995.164,640.325,995.168,640.425,995.173,640.524Z" transform="translate(-988.118 -633.229)" fill="url(#radial-gradient-21)"/>
      <path id="Path_7162" data-name="Path 7162" d="M995.163,639.1q0-.145,0-.29Q995.162,638.957,995.163,639.1Z" transform="translate(-988.119 -632.244)" fill="url(#radial-gradient-22)"/>
      <path id="Path_7163" data-name="Path 7163" d="M996.248,648.261c-.031-.106-.063-.218-.089-.331C996.186,648.042,996.218,648.154,996.248,648.261Z" transform="translate(-988.814 -638.597)" fill="url(#radial-gradient-23)"/>
      <path id="Path_7164" data-name="Path 7164" d="M995.234,641.9c-.009-.1-.016-.2-.022-.307C995.217,641.7,995.224,641.8,995.234,641.9Z" transform="translate(-988.153 -634.181)" fill="url(#radial-gradient-24)"/>
      <path id="Path_7165" data-name="Path 7165" d="M995.5,644.552c-.017-.106-.034-.212-.047-.318C995.469,644.34,995.486,644.446,995.5,644.552Z" transform="translate(-988.323 -636.022)" fill="url(#radial-gradient-25)"/>
      <path id="Path_7166" data-name="Path 7166" d="M995.706,645.818c-.022-.106-.041-.215-.06-.324C995.664,645.6,995.684,645.712,995.706,645.818Z" transform="translate(-988.456 -636.9)" fill="url(#radial-gradient-26)"/>
      <path id="Path_7167" data-name="Path 7167" d="M995.957,647.058c-.027-.109-.053-.217-.074-.329C995.9,646.841,995.93,646.95,995.957,647.058Z" transform="translate(-988.621 -637.761)" fill="url(#radial-gradient-27)"/>
      <path id="Path_7168" data-name="Path 7168" d="M995.341,643.242c-.013-.1-.024-.206-.035-.313C995.317,643.036,995.328,643.138,995.341,643.242Z" transform="translate(-988.219 -635.113)" fill="url(#radial-gradient-28)"/>
      <path id="Path_7169" data-name="Path 7169" d="M996.583,649.436c-.036-.112-.072-.223-.1-.337C996.511,649.212,996.547,649.324,996.583,649.436Z" transform="translate(-989.036 -639.412)" fill="url(#radial-gradient-29)"/>
      <path id="Path_7170" data-name="Path 7170" d="M997.859,652.69a.218.218,0,0,1-.014-.023c-.171-.314-.327-.636-.474-.971-.046-.109-.091-.221-.133-.334a10.118,10.118,0,0,0,.967,1.9c-.06-.1-.124-.194-.184-.3S997.911,652.785,997.859,652.69Z" transform="translate(-989.565 -640.988)" fill="url(#radial-gradient-30)"/>
      <path id="Path_7171" data-name="Path 7171" d="M996.959,650.581q-.063-.164-.121-.335Q996.9,650.417,996.959,650.581Z" transform="translate(-989.286 -640.211)" fill="url(#radial-gradient-31)"/>
      <path id="Path_7172" data-name="Path 7172" d="M996.46,649.044a.238.238,0,0,1-.008-.024A.238.238,0,0,0,996.46,649.044Z" transform="translate(-989.017 -639.357)" fill="url(#radial-gradient-32)"/>
      <path id="Path_7173" data-name="Path 7173" d="M996.46,649.044a.238.238,0,0,1-.008-.024A.238.238,0,0,0,996.46,649.044Z" transform="translate(-989.017 -639.357)" fill="url(#radial-gradient-33)"/>
      <path id="Path_7174" data-name="Path 7174" d="M995.855,646.614c-.006-.016-.007-.032-.012-.051C995.848,646.581,995.849,646.6,995.855,646.614Z" transform="translate(-988.593 -637.645)" fill="url(#radial-gradient-34)"/>
      <path id="Path_7175" data-name="Path 7175" d="M995.855,646.614c-.006-.016-.007-.032-.012-.051C995.848,646.581,995.849,646.6,995.855,646.614Z" transform="translate(-988.593 -637.645)" fill="url(#radial-gradient-35)"/>
      <path id="Path_7176" data-name="Path 7176" d="M996.827,650.22c0-.005,0-.008,0-.011S996.825,650.215,996.827,650.22Z" transform="translate(-989.275 -640.185)" fill="url(#radial-gradient-36)"/>
      <path id="Path_7177" data-name="Path 7177" d="M996.827,650.22c0-.005,0-.008,0-.011S996.825,650.215,996.827,650.22Z" transform="translate(-989.275 -640.185)" fill="url(#radial-gradient-37)"/>
      <path id="Path_7178" data-name="Path 7178" d="M998.067,650.925h0Z" transform="translate(-990.141 -640.683)" fill="url(#radial-gradient-38)"/>
      <path id="Path_7179" data-name="Path 7179" d="M998.067,650.925h0Z" transform="translate(-990.141 -640.683)" fill="url(#radial-gradient-39)"/>
      <path id="Path_7180" data-name="Path 7180" d="M996.138,647.848c0-.014-.008-.024-.01-.036C996.13,647.825,996.134,647.835,996.138,647.848Z" transform="translate(-988.791 -638.516)" fill="url(#radial-gradient-40)"/>
      <path id="Path_7181" data-name="Path 7181" d="M996.138,647.848c0-.014-.008-.024-.01-.036C996.13,647.825,996.134,647.835,996.138,647.848Z" transform="translate(-988.791 -638.516)" fill="url(#radial-gradient-41)"/>
      <path id="Path_7182" data-name="Path 7182" d="M995.2,641.327c0-.038,0-.078,0-.116C995.2,641.249,995.2,641.289,995.2,641.327Z" transform="translate(-988.143 -633.916)" fill="url(#radial-gradient-42)"/>
      <path id="Path_7183" data-name="Path 7183" d="M995.2,641.327c0-.038,0-.078,0-.116C995.2,641.249,995.2,641.289,995.2,641.327Z" transform="translate(-988.143 -633.916)" fill="url(#radial-gradient-43)"/>
      <path id="Path_7184" data-name="Path 7184" d="M995.162,639.907c0-.047,0-.093,0-.139C995.163,639.813,995.162,639.86,995.162,639.907Z" transform="translate(-988.118 -632.911)" fill="url(#radial-gradient-44)"/>
      <path id="Path_7185" data-name="Path 7185" d="M995.162,639.907c0-.047,0-.093,0-.139C995.163,639.813,995.162,639.86,995.162,639.907Z" transform="translate(-988.118 -632.911)" fill="url(#radial-gradient-45)" style="mix-blend-mode: multiply;isolation: isolate"/>
      <path id="Path_7186" data-name="Path 7186" d="M995.291,642.7c0-.031,0-.066-.007-.1C995.286,642.636,995.288,642.671,995.291,642.7Z" transform="translate(-988.203 -634.887)" fill="url(#radial-gradient-46)"/>
      <path id="Path_7187" data-name="Path 7187" d="M995.291,642.7c0-.031,0-.066-.007-.1C995.286,642.636,995.288,642.671,995.291,642.7Z" transform="translate(-988.203 -634.887)" fill="url(#radial-gradient-47)"/>
      <path id="Path_7188" data-name="Path 7188" d="M995.165,638.436c0-.053,0-.109.006-.163C995.17,638.327,995.166,638.383,995.165,638.436Z" transform="translate(-988.12 -631.869)" fill="url(#radial-gradient-48)"/>
      <path id="Path_7189" data-name="Path 7189" d="M995.165,638.436c0-.053,0-.109.006-.163C995.17,638.327,995.166,638.383,995.165,638.436Z" transform="translate(-988.12 -631.869)" fill="url(#radial-gradient-49)" style="mix-blend-mode: multiply;isolation: isolate"/>
      <path id="Path_7190" data-name="Path 7190" d="M995.432,644.043c0-.029-.009-.056-.011-.083C995.423,643.987,995.427,644.014,995.432,644.043Z" transform="translate(-988.299 -635.831)" fill="url(#radial-gradient-50)"/>
      <path id="Path_7191" data-name="Path 7191" d="M995.432,644.043c0-.029-.009-.056-.011-.083C995.423,643.987,995.427,644.014,995.432,644.043Z" transform="translate(-988.299 -635.831)" fill="url(#radial-gradient-51)"/>
      <path id="Path_7192" data-name="Path 7192" d="M995.622,645.346c0-.022-.006-.042-.011-.065C995.615,645.3,995.617,645.324,995.622,645.346Z" transform="translate(-988.431 -636.752)" fill="url(#radial-gradient-52)"/>
      <path id="Path_7193" data-name="Path 7193" d="M995.622,645.346c0-.022-.006-.042-.011-.065C995.615,645.3,995.617,645.324,995.622,645.346Z" transform="translate(-988.431 -636.752)" fill="url(#radial-gradient-53)"/>
      <path id="Path_7194" data-name="Path 7194" d="M1005.061,663.381a20.681,20.681,0,0,1-2.079-2.2A15.093,15.093,0,0,0,1005.061,663.381Z" transform="translate(-993.567 -647.827)" fill="url(#radial-gradient-54)" style="mix-blend-mode: multiply;isolation: isolate"/>
      <path id="Path_7195" data-name="Path 7195" d="M1010.749,669.268c-.309-.274-.616-.548-.911-.823.21.183.413.38.624.569C1010.556,669.1,1010.654,669.182,1010.749,669.268Z" transform="translate(-998.343 -652.89)" fill="url(#radial-gradient-55)" style="mix-blend-mode: multiply;isolation: isolate"/>
      <path id="Path_7196" data-name="Path 7196" d="M1004.992,718.1c-.138.038-.278.075-.416.109C1004.715,718.18,1004.854,718.142,1004.992,718.1Z" transform="translate(-994.677 -687.488)" fill="url(#radial-gradient-56)" style="mix-blend-mode: multiply;isolation: isolate"/>
      <path id="Path_7197" data-name="Path 7197" d="M1002.452,718.789c.062-.01.125-.027.186-.04-.088.019-.177.036-.266.051C1002.4,718.794,1002.425,718.794,1002.452,718.789Z" transform="translate(-993.142 -687.938)" fill="url(#radial-gradient-57)" style="mix-blend-mode: multiply;isolation: isolate"/>
      <path id="Path_7198" data-name="Path 7198" d="M995.837,646.5c.008.041.019.082.028.124-.016-.073-.036-.147-.051-.222l.008.049C995.828,646.466,995.832,646.484,995.837,646.5Z" transform="translate(-988.573 -637.533)" fill="url(#radial-gradient-58)" style="mix-blend-mode: multiply;isolation: isolate"/>
      <path id="Path_7199" data-name="Path 7199" d="M989.074,649.14a5.717,5.717,0,0,0-.823-3.78c-.05-.067-.092-.141-.142-.211s-.079-.116-.121-.173-.1-.125-.146-.189-.106-.132-.162-.2-.092-.111-.143-.164c-.07-.079-.143-.155-.219-.231-.041-.045-.082-.09-.126-.133-.122-.119-.249-.24-.385-.359q-.417-.368-.834-.724c-.979-.84-1.941-1.65-2.828-2.48-2.418-2.253-4.281-4.653-4.439-8.248a22.384,22.384,0,0,1,.182-3.985c-4.48,3.793-7.3,10.685-6.915,17.392.292,5.024,2.773,8.447,3.479,9.021a7.89,7.89,0,0,0,5.651,1.09C984.864,655.022,988.374,652.372,989.074,649.14Z" transform="translate(-971.938 -624.896)" fill="#feb100"/>
      <path id="Path_7200" data-name="Path 7200" d="M995.761,627.691c.018-.131.039-.258.06-.373-.015.067-.03.137-.044.2C995.773,627.544,995.767,627.605,995.761,627.691Z" transform="translate(-988.536 -624.237)" fill="url(#radial-gradient-59)" style="mix-blend-mode: multiply;isolation: isolate"/>
      <path id="Path_7201" data-name="Path 7201" d="M1001.681,718.958c.071-.011.141-.026.209-.04l-.065.01C1001.778,718.938,1001.73,718.95,1001.681,718.958Z" transform="translate(-992.66 -688.055)" fill="url(#radial-gradient-60)"/>
      <path id="Path_7202" data-name="Path 7202" d="M1006.178,717.9c-.076.023-.153.043-.229.063C1006.025,717.939,1006.1,717.92,1006.178,717.9Z" transform="translate(-995.634 -687.344)" fill="url(#radial-gradient-61)"/>
      <path id="Path_7203" data-name="Path 7203" d="M1003.651,718.463c-.135.032-.268.061-.4.087C1003.383,718.524,1003.517,718.495,1003.651,718.463Z" transform="translate(-993.752 -687.738)" fill="url(#radial-gradient-62)"/>
      <path id="Path_7204" data-name="Path 7204" d="M995.16,631.942c0-.093,0-.186,0-.281,0-.053,0-.109.006-.163,0-.091.005-.186.011-.277,0-.063.009-.125.014-.19s.1-1.9.15-2.482A24.685,24.685,0,0,0,995.16,631.942Z" transform="translate(-988.116 -625.094)" fill="url(#radial-gradient-63)"/>
      <path id="Path_7205" data-name="Path 7205" d="M1015.062,673.085l.589.509c-.02-.018-.038-.037-.059-.056-.075-.065-.15-.129-.225-.2-.2-.177-.406-.353-.608-.526-.132-.115-.262-.224-.393-.338q-.775-.664-1.524-1.319a.1.1,0,0,1,.017.014C1013.567,671.807,1014.308,672.435,1015.062,673.085Z" transform="translate(-1000.436 -654.781)" fill="url(#radial-gradient-64)"/>
      <path id="Path_7206" data-name="Path 7206" d="M995.793,646.277c0,.012,0,.025.007.038C995.8,646.3,995.795,646.289,995.793,646.277Z" transform="translate(-988.558 -637.446)" fill="url(#radial-gradient-65)"/>
      <path id="Path_7207" data-name="Path 7207" d="M994.862,627.577c0,.01,0,.019,0,.028.112-.094.221-.2.334-.287C995.079,627.4,994.97,627.49,994.862,627.577Z" transform="translate(-987.906 -624.237)" fill="url(#radial-gradient-66)"/>
      <path id="Path_7208" data-name="Path 7208" d="M1002.67,643.068c-.007-.007-.015-.012-.021-.018l-.589-.509c-.755-.65-1.5-1.278-2.2-1.912a.093.093,0,0,0-.017-.014c-.1-.086-.194-.17-.288-.254-.21-.189-.413-.386-.624-.569a15.106,15.106,0,0,1-2.079-2.2c-.021-.027-.039-.052-.059-.079a21.769,21.769,0,0,0,2.142,2.281q.307.286.622.57c.584.523,1.194,1.045,1.811,1.575-.55-.554-1.084-1.1-1.58-1.653a11.106,11.106,0,0,1-3.4-7.537,12.877,12.877,0,0,1,.854-4.862l-2.519-.563c-.01,0-.019.024-.027.039l.008-.039c-.115.091-.212.193-.324.287a22.38,22.38,0,0,0-.178,3.985c.158,3.6,2.024,6,4.442,8.248.888.83,1.849,1.64,2.83,2.48.276.238.556.479.833.724.136.119.263.239.385.359.045.043.086.088.127.133.075.076.149.152.219.231.05.053.1.109.143.164s.111.133.163.2.1.126.146.189.082.115.121.173.092.144.142.211a5.717,5.717,0,0,1,.823,3.78c-.7,3.232-4.21,5.882-7.971,6.629l.065-.01c.089-.016.177-.032.266-.051.134-.026.268-.055.4-.087s.279-.071.416-.109c.076-.02.153-.04.229-.063,3.4-.994,6.57-3.407,7.126-6.348C1005.654,645.536,1002.773,643.163,1002.67,643.068Zm-7.581-8.521c-.012-.032-.021-.066-.032-.1.044.122.094.239.142.358C995.163,634.719,995.122,634.636,995.089,634.547Z" transform="translate(-987.434 -624.237)" fill="#9b6f0b"/>
    </g>
    <text id="Rezilla" transform="translate(1023.883 644.886)" fill="#1b153b" font-size="34" font-family="SegoeUI, Segoe UI"><tspan x="0" y="0">Rezilla</tspan></text>
  </g>
</svg>
